<svg height="512pt" viewBox="-91 0 512 512.00001" width="512pt" xmlns="http://www.w3.org/2000/svg"><path d="m314.996094 150.628906h-15v-45.25c0-8.28125-6.714844-15-15-15h-105v-36.476562l79.433594-24.566406c7.914062-2.445313 12.347656-10.847657 9.898437-18.761719-2.449219-7.914063-10.84375-12.351563-18.765625-9.898438l-89.996094 27.835938c-6.285156 1.941406-10.566406 7.753906-10.566406 14.328125v47.539062h-105c-8.285156 0-15 6.71875-15 15v45.25h-15c-8.285156 0-15 6.714844-15 15v60.25c0 8.285156 6.714844 15 15 15h16.066406l18.972656 257.226563c.578126 7.832031 7.105469 13.894531 14.960938 13.894531h199.996094c7.855468 0 14.382812-6.0625 14.960937-13.894531l18.972657-257.226563h16.066406c8.285156 0 15-6.714844 15-15v-60.25c0-8.285156-6.714844-15-15-15zm-254.996094-30.25h209.996094v30.25h-209.996094zm18.933594 361.621094-10.757813-145.84375c38.78125-23.527344 61.714844-12.011719 90.359375 2.378906 26.480469 13.304688 58.0625 29.441406 102.355469 10.25l-9.828125 133.214844zm184.546875-168.355469c-39.457031 24.210938-62.570313 12.605469-91.476563-1.917969-35.800781-17.984374-64.808594-28.074218-106.246094-8.328124l-4.609374-62.519532h207.703124zm36.515625-102.765625c-5.933594 0-267 0-269.996094 0v-30.25h269.996094zm0 0"/></svg>